<svg xmlns="http://www.w3.org/2000/svg" width="240" height="240" viewBox="0 0 240 240" fill="none">
  <defs>
    <linearGradient id="bg" x1="40" y1="34" x2="196" y2="206" gradientUnits="userSpaceOnUse">
      <stop offset="0" stop-color="#38BDF8" />
      <stop offset="0.52" stop-color="#2563EB" />
      <stop offset="1" stop-color="#172554" />
    </linearGradient>
    <linearGradient id="sheen" x1="70" y1="52" x2="154" y2="138" gradientUnits="userSpaceOnUse">
      <stop offset="0" stop-color="#FFFFFF" stop-opacity="0.88" />
      <stop offset="1" stop-color="#BFDBFE" stop-opacity="0.08" />
    </linearGradient>
    <linearGradient id="letter" x1="88" y1="72" x2="168" y2="160" gradientUnits="userSpaceOnUse">
      <stop offset="0" stop-color="#F8FAFC" />
      <stop offset="1" stop-color="#DBEAFE" />
    </linearGradient>
  </defs>

  <ellipse cx="120" cy="195" rx="64" ry="16" fill="#0F172A" fill-opacity="0.12" />

  <rect x="36" y="28" width="168" height="168" rx="44" fill="url(#bg)" />
  <rect x="37.5" y="29.5" width="165" height="165" rx="42.5" stroke="#FFFFFF" stroke-opacity="0.16" />

  <path d="M62 60C62 49.5066 70.5066 41 81 41H152C133 51.5 117 67 105 85C94 101.5 86 122.5 81 148L70 132.5C64.8 125.1 62 116.4 62 107.4V60Z" fill="url(#sheen)" fill-opacity="0.5" />

  <path d="M82 70H108V144H146V166H82V70Z" fill="url(#letter)" />
  <path d="M124 70H145.5C168.42 70 187 88.5802 187 111.5V124.5C187 147.42 168.42 166 145.5 166H124V144H144C155.598 144 165 134.598 165 123V113C165 101.402 155.598 92 144 92H124V70Z" fill="#7DD3FC" />
  <path d="M121 70H142.5C166.524 70 186 89.476 186 113.5V122.5C186 146.524 166.524 166 142.5 166H121V145H141.5C154.479 145 165 134.479 165 121.5V114.5C165 101.521 154.479 91 141.5 91H121V70Z" fill="url(#letter)" />
</svg>
